<svg width="24" height="23" viewBox="0 0 24 23" fill="none" xmlns="http://www.w3.org/2000/svg">
<g clip-path="url(#clip0_4034_9681)">
<path d="M12 14C13.6569 14 15 12.6569 15 11C15 9.34315 13.6569 8 12 8C10.3431 8 9 9.34315 9 11C9 12.6569 10.3431 14 12 14Z" stroke="#EDEEF2" stroke-width="2" stroke-linecap="round" stroke-linejoin="round"/>
<path d="M19.4 14C19.2669 14.3016 19.2272 14.6362 19.286 14.9606C19.3448 15.285 19.4995 15.5843 19.73 15.82L19.79 15.88C19.976 16.0657 20.1235 16.2863 20.2241 16.5291C20.3248 16.7719 20.3766 17.0322 20.3766 17.295C20.3766 17.5578 20.3248 17.8181 20.2241 18.0609C20.1235 18.3037 19.976 18.5243 19.79 18.71C19.6043 18.896 19.3837 19.0435 19.1409 19.1441C18.8981 19.2448 18.6378 19.2966 18.375 19.2966C18.1122 19.2966 17.8519 19.2448 17.6091 19.1441C17.3663 19.0435 17.1457 18.896 16.96 18.71L16.9 18.65C16.6643 18.4195 16.365 18.2648 16.0406 18.206C15.7162 18.1472 15.3816 18.1869 15.08 18.32C14.7842 18.4468 14.532 18.6572 14.3543 18.9255C14.1766 19.1938 14.0813 19.5082 14.08 19.83V20C14.08 20.5304 13.8693 21.0391 13.4942 21.4142C13.1191 21.7893 12.6104 22 12.08 22C11.5496 22 11.0409 21.7893 10.6658 21.4142C10.2907 21.0391 10.08 20.5304 10.08 20V19.91C10.0723 19.579 9.96512 19.258 9.77251 18.9887C9.5799 18.7194 9.31074 18.5143 9 18.4C8.69838 18.2669 8.36381 18.2272 8.03941 18.286C7.71502 18.3448 7.41568 18.4995 7.18 18.73L7.12 18.79C6.93425 18.976 6.71368 19.1235 6.47088 19.2241C6.22808 19.3248 5.96783 19.3766 5.705 19.3766C5.44217 19.3766 5.18192 19.3248 4.93912 19.2241C4.69632 19.1235 4.47575 18.976 4.29 18.79C4.10405 18.6043 3.95653 18.3837 3.85588 18.1409C3.75523 17.8981 3.70343 17.6378 3.70343 17.375C3.70343 17.1122 3.75523 16.8519 3.85588 16.6091C3.95653 16.3663 4.10405 16.1457 4.29 15.96L4.35 15.9C4.58054 15.6643 4.73519 15.365 4.794 15.0406C4.85282 14.7162 4.81312 14.3816 4.68 14.08C4.55324 13.7842 4.34276 13.532 4.07447 13.3543C3.80618 13.1766 3.49179 13.0813 3.17 13.08H3C2.46957 13.08 1.96086 12.8693 1.58579 12.4942C1.21071 12.1191 1 11.6104 1 11.08C1 10.5496 1.21071 10.0409 1.58579 9.66579C1.96086 9.29071 2.46957 9.08 3 9.08H3.09C3.42099 9.07226 3.742 8.96512 4.0113 8.77251C4.28059 8.5799 4.48572 8.31074 4.6 8C4.73312 7.69838 4.77282 7.36381 4.714 7.03941C4.65519 6.71502 4.50054 6.41568 4.27 6.18L4.21 6.12C4.02405 5.93425 3.87653 5.71368 3.77588 5.47088C3.67523 5.22808 3.62343 4.96783 3.62343 4.705C3.62343 4.44217 3.67523 4.18192 3.77588 3.93912C3.87653 3.69632 4.02405 3.47575 4.21 3.29C4.39575 3.10405 4.61632 2.95653 4.85912 2.85588C5.10192 2.75523 5.36217 2.70343 5.625 2.70343C5.88783 2.70343 6.14808 2.75523 6.39088 2.85588C6.63368 2.95653 6.85425 3.10405 7.04 3.29L7.1 3.35C7.33568 3.58054 7.63502 3.73519 7.95941 3.794C8.28381 3.85282 8.61838 3.81312 8.92 3.68H9C9.29577 3.55324 9.54802 3.34276 9.72569 3.07447C9.90337 2.80618 9.99872 2.49179 10 2.17V2C10 1.46957 10.2107 0.960859 10.5858 0.585786C10.9609 0.210714 11.4696 0 12 0C12.5304 0 13.0391 0.210714 13.4142 0.585786C13.7893 0.960859 14 1.46957 14 2V2.09C14.0013 2.41179 14.0966 2.72618 14.2743 2.99447C14.452 3.26276 14.7042 3.47324 15 3.6C15.3016 3.73312 15.6362 3.77282 15.9606 3.714C16.285 3.65519 16.5843 3.50054 16.82 3.27L16.88 3.21C17.0657 3.02405 17.2863 2.87653 17.5291 2.77588C17.7719 2.67523 18.0322 2.62343 18.295 2.62343C18.5578 2.62343 18.8181 2.67523 19.0609 2.77588C19.3037 2.87653 19.5243 3.02405 19.71 3.21C19.896 3.39575 20.0435 3.61632 20.1441 3.85912C20.2448 4.10192 20.2966 4.36217 20.2966 4.625C20.2966 4.88783 20.2448 5.14808 20.1441 5.39088C20.0435 5.63368 19.896 5.85425 19.71 6.04L19.65 6.1C19.4195 6.33568 19.2648 6.63502 19.206 6.95941C19.1472 7.28381 19.1869 7.61838 19.32 7.92V8C19.4468 8.29577 19.6572 8.54802 19.9255 8.72569C20.1938 8.90337 20.5082 8.99872 20.83 9H21C21.5304 9 22.0391 9.21071 22.4142 9.58579C22.7893 9.96086 23 10.4696 23 11C23 11.5304 22.7893 12.0391 22.4142 12.4142C22.0391 12.7893 21.5304 13 21 13H20.91C20.5882 13.0013 20.2738 13.0966 20.0055 13.2743C19.7372 13.452 19.5268 13.7042 19.4 14V14Z" stroke="#EDEEF2" stroke-width="2" stroke-linecap="round" stroke-linejoin="round"/>
</g>
<defs>
<clipPath id="clip0_4034_9681">
<rect width="24" height="24" fill="white" transform="translate(0 -1)"/>
</clipPath>
</defs>
</svg>
