<svg width="16" height="16" viewBox="0 0 16 16" fill="none" xmlns="http://www.w3.org/2000/svg">
<path d="M8.00016 8.66634C8.36835 8.66634 8.66683 8.36786 8.66683 7.99967C8.66683 7.63148 8.36835 7.33301 8.00016 7.33301C7.63197 7.33301 7.3335 7.63148 7.3335 7.99967C7.3335 8.36786 7.63197 8.66634 8.00016 8.66634Z" fill="#83859C" stroke="#83859C" stroke-width="1.5" stroke-linecap="round" stroke-linejoin="round"/>
<path d="M8.00016 4.00033C8.36835 4.00033 8.66683 3.70185 8.66683 3.33366C8.66683 2.96547 8.36835 2.66699 8.00016 2.66699C7.63197 2.66699 7.3335 2.96547 7.3335 3.33366C7.3335 3.70185 7.63197 4.00033 8.00016 4.00033Z" fill="#83859C" stroke="#83859C" stroke-width="1.5" stroke-linecap="round" stroke-linejoin="round"/>
<path d="M8.00016 13.3333C8.36835 13.3333 8.66683 13.0349 8.66683 12.6667C8.66683 12.2985 8.36835 12 8.00016 12C7.63197 12 7.3335 12.2985 7.3335 12.6667C7.3335 13.0349 7.63197 13.3333 8.00016 13.3333Z" fill="#83859C" stroke="#83859C" stroke-width="1.5" stroke-linecap="round" stroke-linejoin="round"/>
</svg>
